<svg id="Layer_1" data-name="Layer 1" xmlns="http://www.w3.org/2000/svg" width="800" height="800" viewBox="0 0 800 800"><defs><style>.cls-1{fill:#ffe502;}</style></defs><path class="cls-1" d="M191.6326,272.55H38.2525c14.3292,11.5016,42.5964,33.9923,42.4987,34.283C79.3642,310.9505,27.1777,471.2091,22.5,486.1447q37.9784-5.82,76.0613-10.788,11.4742-35.2651,23.2251-70.5763,10.9386,32.45,22.1738,64.9234,34.6362-4.0067,69.3277-7.4607c-7.8573-21.4722-23.217-64.4169-23.217-64.4169C257.3142,388.6067,297.2413,272.55,191.6326,272.55Zm-25.37,81.7367c-16.8385.863-25.7333,1.49-27.9172,1.5965q6.2183-18.34,12.5171-36.7043c7.3672-.1959,14.7636-.4819,22.1328-.4819C194.0517,318.6972,192.2318,352.9561,166.2625,354.2869Z"/><path class="cls-1" d="M295.5355,272.55c-.0406.1072-.08.2142-.1209.3214-5.3155,14.0423-63.69,172.4785-69.2961,188.151q38.0776-3.5748,76.1911-6.2631c5.5244-15.1256,50.6362-136.5734,68.0317-182.2093C345.4282,272.4814,320.4485,272.619,295.5355,272.55Z"/><path class="cls-1" d="M558.09,272.55H389.8623c-1.5513,3.9957-12.565,32.4843-16.4659,42.5989q35.4394-.328,70.886-.4719c-9.1241,7.8-98.8709,86.9829-107.6808,95.0537q-8.2467,21.9328-16.4465,43.82,84.1825-5.3192,168.3466-6.5741,8.1312-20.724,16.3321-41.4824-35.4711.2244-70.9544.944c17.6433-15.4508,98.151-84.1161,107.1755-91.7033C546.5875,301.0223,552.5339,286.2971,558.09,272.55Z"/><path class="cls-1" d="M777.5,272.55H693.8482c-6.2769,6.3091-60.0621,60.0415-71.6788,71.5664,9.0521-23.2567,18.8122-48.2062,27.8665-71.5664-24.91-.1959-50.0448.15-74.9446,0-1.3674,3.4391-47.8167,120.22-69.1591,174.2651,7.0071-.0479,66.8526.2593,76.0163.4261,5.3058-13.5572,26.5609-67.9172,31.8856-81.549q8.7463,41.3443,17.4887,82.85,37.9239,1.3128,75.8131,3.5921Q696.7913,408.7175,686.373,365.52C693.75,358.1023,755.5171,295.39,777.5,272.55Z"/><path class="cls-1" d="M364.7268,519.1129c-3.6378,3.3065-8.928,8.3325-21.1625,8.3325s-24.1386-7.34-24.1386-23.543,11.904-23.4767,24.4691-23.4767,17.856,6.613,19.1787,7.9349l-9.92,8.2678a12.6266,12.6266,0,0,0-9.2585-3.969c-5.29,0-9.4573,3.969-9.4573,11.243s4.167,11.243,9.4573,11.243,6.2825-1.6532,6.2825-1.6532v-3.3065h-6.9435V499.1414h21.493Z"/><path class="cls-1" d="M415.9829,526.7182h-16.202l-1.7858-6.4143h-13.028l-1.72,6.4143h-15.541l15.8715-45.6316h16.5333Zm-21.0963-17.856-3.3727-12.2338-3.3728,12.2338Z"/><path class="cls-1" d="M473.8528,526.7182h-14.68l-.5293-26.1223-5.952,26.1223H439.7948l-5.952-26.1223-.5285,26.1223H418.6322l2.6456-45.6316h19.1787l5.7533,24.8,5.82-24.8H471.208Z"/><path class="cls-1" d="M513.5385,526.7182H480.4719V481.0866h32.404v11.7715H495.3512v4.96h16.5325v11.7052H495.3512v5.2911h18.1873Z"/><path class="cls-1" d="M547.93,523.61c-3.6362,2.7765-8.2,3.9013-13.491,3.9013a28.87,28.87,0,0,1-17.591-6.0845l6.613-11.2415a23.022,23.022,0,0,0,12.1691,4.96c1.9829,0,3.3727-.5963,3.3727-1.9182s-1.6532-1.852-3.3065-2.3805c-1.6532-.4638-5.291-1.6533-6.613-2.1171a20.4154,20.4154,0,0,1-6.2833-3.3727c-2.3142-1.983-4.1662-4.761-4.1662-9.7207a14.422,14.422,0,0,1,5.291-11.0443c2.7765-2.3158,7.34-3.969,13.4248-3.969a26.4706,26.4706,0,0,1,16.269,5.49L547.93,496.6931a18.8983,18.8983,0,0,0-10.8455-4.3634c-2.38,0-3.704.4622-3.704,1.85,0,1.3236,2.117,1.7858,3.1756,2.1171,1.0569.3312,3.8349,1.1247,5.4219,1.6532a24.7556,24.7556,0,0,1,7.6053,3.835,12.4315,12.4315,0,0,1,4.2988,9.921A15.1331,15.1331,0,0,1,547.93,523.61Z"/><path class="cls-1" d="M567.4409,527.4454c-4.8273,0-8.1338-2.513-8.1338-7.1415s3.3065-7.2092,8.1338-7.2092c4.7625,0,8.069,2.5792,8.069,7.2092S572.2034,527.4454,567.4409,527.4454Z"/><path class="cls-1" d="M627.2953,526.7182H611.7535L597.865,501.2569s.3312,4.96.3312,8.2662v17.1951H583.6467V481.0866H599.85l13.226,25.4613s-.33-4.96-.33-8.2662V481.0866h14.55Z"/><path class="cls-1" d="M668.3,526.7182H635.2333V481.0866h32.4055v11.7715H650.1141v4.96h16.5325v11.7052H650.1141v5.2911H668.3Z"/><path class="cls-1" d="M708.0487,492.7256H697.2694v33.9926h-14.947V492.7256h-10.713v-11.639h36.4393Z"/></svg>