<svg id="Layer_1" data-name="Layer 1" xmlns="http://www.w3.org/2000/svg" width="800" height="800" viewBox="0 0 800 800"><defs><style>.cls-1{fill:#070606;}.cls-2{fill:#ffe500;}.cls-3{fill:#ffe502;}</style></defs><polygon class="cls-1" points="696.031 487.482 689.341 457.377 606.411 439.99 294.633 455.705 294.633 474.76 367.671 494.25 515.471 501.163 537.651 503.361 542.751 513.729 685.39 488.374 696.031 487.482"/><path class="cls-1" d="M783,309.9731l-51.1123-41.3674L633.983,287.1592l-22.7874-18.5535-74.8732,9.8334-12.1874-9.8334L360.4233,280.0315l-14.0624-11.4258L259.6462,311.479,225.37,283.2317c.4757.3853-111.6055,25.656-111.6055,25.656L17,470.8522,68.1123,512.22q35.96-5.511,72.02-10.2151,5.1617-15.8646,10.3861-31.7382l32.6009,26.3857q32.7955-3.7939,65.6443-7.0644c-1.8974-5.1853-3.7644-10.3718-5.6459-15.5578l17.7951,14.4021q36.0546-3.3849,72.1429-5.93c1.39-3.8054,2.8019-7.6171,4.1967-11.424l12.7,10.2794q79.71-5.0366,159.4027-6.2248c1.3388-3.4124,2.6921-6.8319,4.0341-10.2456l12.47,10.0928c6.6349-.0453,54.6239.0876,71.978.4035q5.4341-13.8854,10.8764-27.8031l35.8744,29.0348q35.9091,1.2428,71.7852,3.4015-9.7946-41.11-19.66-82.0131C724.6552,369.91,755.2467,338.8075,783,309.9731Z"/><path class="cls-2" d="M177.1468,268.6057H31.9156c13.5679,10.8906,40.3333,32.1864,40.2408,32.4616C70.8431,304.9659,21.4292,456.71,17,470.8522q35.9607-5.5107,72.02-10.2149,10.8646-33.3915,21.9912-66.8267,10.3575,30.726,20.9958,61.4742,32.796-3.7938,65.6443-7.0644c-7.44-20.3314-21.9834-60.9944-21.9834-60.9944C239.3388,378.4963,277.1446,268.6057,177.1468,268.6057ZM153.1245,346c-15.9439.8171-24.3661,1.4108-26.434,1.5116q5.888-17.366,11.8522-34.7542c6.9757-.1855,13.9792-.4563,20.9569-.4563C179.4374,312.301,177.7142,344.74,153.1245,346Z"/><path class="cls-2" d="M275.53,268.6057c-.0385.1015-.0761.2028-.1146.3043-5.033,13.2963-60.3059,163.315-65.6144,178.1548q36.0546-3.3849,72.1431-5.93c5.231-14.322,47.946-129.3174,64.4173-172.5287C322.7714,268.5405,299.1188,268.6709,275.53,268.6057Z"/><path class="cls-2" d="M524.135,268.6057h-159.29c-1.4689,3.7834-11.8974,30.7585-15.591,40.3357q33.5566-.3106,67.12-.4469c-8.6393,7.3858-93.618,82.3617-101.96,90.0037q-7.8085,20.7675-15.5727,41.4915,79.71-5.0366,159.4025-6.2248,7.6994-19.623,15.4644-39.2786-33.5863.2125-67.1846.8939c16.7059-14.63,92.9363-79.6471,101.4814-86.8312C513.2433,295.5652,518.8738,281.6223,524.135,268.6057Z"/><path class="cls-2" d="M731.8877,268.6057H652.68c-5.9434,5.974-56.871,56.8516-67.87,67.7642,8.5711-22.0211,17.8126-45.645,26.3859-67.7642-23.5866-.1855-47.3859.1417-70.9629,0-1.2947,3.2565-45.2762,113.8325-65.4848,165.0066,6.6349-.0453,63.3009.2455,71.9778.4034,5.0238-12.8368,25.15-64.3088,30.1915-77.2163q8.2817,39.1477,16.56,78.448,35.909,1.243,71.7851,3.4014-9.7948-41.11-19.66-82.0127C652.5873,349.6125,711.0727,290.2317,731.8877,268.6057Z"/><path class="cls-1" d="M547.3052,523c-1.0807,2.6173-5.5263,8.4478-16.817,8.4478s-19.858-8.1992-19.858-8.1992v7.4453H479.2131l-6.289-4.9394v4.9394H458.9759l-5.1724-4.3257-.9856,4.3257h-12.253l-6.1572-4.7114v4.7114h-13.95l-3.4042-2.55.6977,2.55H402.547L394.6924,524.6h-6.22l-1.6337,6.0943H372.0727l-5.7547-4.6966c-17.7933,10.92-31.1046,1.4164-31.1046,1.4164s-19.6506-15.8967-25.13-19.4969c-15.58-10.2371-9.0284-28.13-9.0284-28.13,5.6922-12.0534,19.61-13.1462,19.61-13.1462l347.7171.0559,27.6479,20.7851-.5927,10.9153H685.1964v32.2969H670.9949l-13.3231-9.92v9.92H626.2547l-7.5421-6.1265v6.1265H603.9461l-12.881-9.806v9.806H577.2413L569.51,524.6c.2472.1948-.3045,1.8767-.3767,2.0984a6.4227,6.4227,0,0,1-2.77,3.5976c-4.3431,2.5783-8.5089.4084-12.0826-2.2266C553.7128,527.65,547.3052,523,547.3052,523Z"/><path class="cls-3" d="M342.1863,502.8263c-3.4564,3.1415-8.4827,7.9168-20.1069,7.9168s-22.9345-6.9741-22.9345-22.3686,11.31-22.3057,23.2485-22.3057,16.9653,6.2831,18.2221,7.5391l-9.4255,7.8554a11.9965,11.9965,0,0,0-8.7966-3.771c-5.0264,0-8.9856,3.771-8.9856,10.6822s3.9592,10.6822,8.9856,10.6822,5.9691-1.5708,5.9691-1.5708v-3.1416h-6.5972V483.851h20.421Zm48.6993,7.2259H375.4918l-1.6967-6.0943H361.417l-1.6337,6.0943H345.0175l15.08-43.3554h15.7085Zm-20.0439-16.9654-3.2045-11.6235-3.2045,11.6235Zm75.0272,16.9654H431.9207l-.5029-24.8193-5.6551,24.8193H413.51l-5.6551-24.8193-.5021,24.8193h-13.95l2.5136-43.3554h18.2221l5.4663,23.5632,5.5292-23.5632h18.2221Zm37.7061,0H452.1579V466.6968h30.7876v11.1843H466.2949v4.7124h15.7078v11.1213H466.2949v5.0271h17.28Zm32.6761-2.9528c-3.4549,2.638-7.791,3.7067-12.8181,3.7067a27.43,27.43,0,0,1-16.7135-5.781l6.2831-10.6808a21.8743,21.8743,0,0,0,11.562,4.7124c1.8841,0,3.2045-.5666,3.2045-1.8226s-1.5708-1.76-3.1415-2.2618c-1.5708-.4406-5.0271-1.5707-6.2832-2.0114a19.3978,19.3978,0,0,1-5.97-3.2045c-2.1988-1.884-3.9584-4.5235-3.9584-9.2358a13.7027,13.7027,0,0,1,5.027-10.4934c2.638-2.2,6.9741-3.771,12.7551-3.771a25.15,25.15,0,0,1,15.4575,5.2159l-5.4047,10.0527a17.9558,17.9558,0,0,0-10.3045-4.1458c-2.2618,0-3.5193.4392-3.5193,1.7582,0,1.2575,2.0114,1.6966,3.0171,2.0114s3.6437,1.0686,5.1516,1.5708a23.52,23.52,0,0,1,7.2258,3.6437,11.8113,11.8113,0,0,1,4.0844,9.4261A14.3784,14.3784,0,0,1,516.2511,507.0994Zm18.5375,3.6437c-4.5864,0-7.728-2.3876-7.728-6.7852s3.1416-6.85,7.728-6.85c4.525,0,7.6666,2.4506,7.6666,6.85S539.3136,510.7431,534.7886,510.7431Zm56.8688-.6909H576.8909l-13.1958-24.1913s.3148,4.7124.3148,7.8539v16.3374H550.1861V466.6968h15.3946l12.5662,24.1912s-.3133-4.7123-.3133-7.8539V466.6968h13.8238Zm38.9592,0H599.2V466.6968h30.7891v11.1843H613.338v4.7124h15.7078v11.1213H613.338v5.0271h17.2786Zm37.7661-32.297H658.1412v32.297H643.94v-32.297H633.7611V466.6968h34.6216Z"/></svg>