<svg xmlns="http://www.w3.org/2000/svg" width="1000" height="1000" viewBox="0 0 1000 1000"><defs><style>.cls-1{fill:#ffe500;}.cls-2{fill:#fff;}</style></defs><g id="Layer_2" data-name="Layer 2"><path class="cls-1" d="M125.41,353.9505l-59.5228,6.1082c6.0188,3.8928,17.8843,11.4952,17.8579,11.6119C83.37,373.3236,69.5,437.594,68.28,443.5764q14.5066-3.771,29.0877-7.2156,3.0485-14.1424,6.2024-28.3137,5.5373,12.1573,11.1906,24.312,13.2818-2.9343,26.6071-5.6563c-3.9043-8.02-11.5752-24.0738-11.5752-24.0738C155.5206,396.3732,166.3935,349.7448,125.41,353.9505Zm-6.59,32.73c-6.5,1.0055-9.927,1.603-10.77,1.7313q1.6829-7.365,3.3959-14.7424c2.8512-.3694,5.71-.775,8.57-1.0684C128.1861,371.7626,128.8442,385.13,118.8191,386.6807Z"/><path class="cls-1" d="M165.7315,349.8127l-.0342.13c-1.5035,5.6612-17.8474,69.4707-19.399,75.776q14.6346-2.9035,29.3183-5.4647c1.5415-6.09,14.2117-55.0171,19.145-73.42C185.0907,347.7991,175.4023,348.8473,165.7315,349.8127Z"/><path class="cls-1" d="M267.622,339.3567l-65.2848,6.7c-.4429,1.6124-3.5825,13.1067-4.6935,17.1873q13.74-1.5387,27.49-3.0061c-3.23,3.39-34.9051,37.6931-38.0026,41.176q-2.3268,8.84-4.6374,17.66,32.4572-5.4167,65.069-9.2554,2.33-8.3662,4.6861-16.7487-13.7565,1.5-27.4979,3.1921c6.2316-6.6987,34.74-36.552,37.94-39.8558C264.2919,350.8641,266.0131,344.9128,267.622,339.3567Z"/><path class="cls-1" d="M352.769,330.619,320.306,333.95c-2.1847,2.6984-20.9174,25.6924-24.9666,30.6275,2.5867-9.3857,5.3807-19.4566,7.9642-28.8827-9.6747.916-19.4151,2.051-29.084,2.9846-.3937,1.3891-13.7688,48.5583-19.8989,70.3818,2.7174-.2976,25.954-2.5617,29.5169-2.8619,1.5191-5.4725,7.6028-27.4146,9.1263-32.9168q5.0408,15.6963,10.0863,31.4553,14.77-1.0008,29.5641-1.6252-5.7435-16.4369-11.5068-32.7858C323.6749,367.1547,345.1476,340.3578,352.769,330.619Z"/><polygon class="cls-2" points="348.587 402.792 341.587 379.971 907.217 317.803 909.547 341.156 348.587 402.792"/><polygon class="cls-2" points="506.438 638.276 506.438 618.325 938.113 567.703 941.113 589.356 506.438 638.276"/><path class="cls-1" d="M142.128,508.6276c0-7.5465-.3149-16.0041-2.5155-22.3751-2.2017-6.0578-5.6606-10.0959-11.0053-9.534-8.8048,1.2394-11.6351,10.6549-11.6351,24.1757,0,7.8613,3.4589,15.6725,8.49,23.9477s11.635,16.7005,18.238,25.7544c7.8613,10.8085,15.7215,21.9295,21.6959,32.9371,5.9744,11.0054,10.063,22.5236,10.063,35.101,0,15.4077-2.5166,30.1368-9.7482,41.5872s-18.8666,19.5909-37.4184,21.5412c-21.6959,2.2807-33.96-4.606-40.8774-16.4558s-8.49-28.35-8.49-45.6446l33.3309-6.6475c0,9.7471.3137,19.4619,2.83,26.4287,2.2006,7.3161,5.9733,11.95,13.206,11.19,10.0619-1.058,13.8357-12.1446,13.8357-26.9237,0-7.5454-3.7738-15.954-8.8047-24.5429-2.83-4.1053-5.6607-8.5244-8.8037-12.9112-6.6029-8.7379-13.8368-18.67-21.3821-29.51a116.7532,116.7532,0,0,1-16.666-34.093,58.9294,58.9294,0,0,1-2.83-18.2548c0-12.5773,2.83-26.3958,10.0619-37.5313,7.2327-10.8224,18.238-19.2115,34.2755-21.2108,20.4375-2.4632,32.3863,4.7712,38.99,16.3395,6.603,11.8831,8.49,27.0928,8.49,39.9851Z"/><path class="cls-1" d="M193.6892,441.2643l33.9606-3.5691c14.7791-1.5537,29.5572.6659,40.8774,10.1665s18.8655,26.3174,18.8655,52.7288c0,26.4131-7.5453,44.5-18.8655,56.3808S242.4289,574.8066,227.65,576.36v92.4441l-33.9606,3.57ZM227.65,541.7727c10.3768-1.09,16.98-3.6714,20.7524-9.4133,3.7738-5.4281,4.7172-14.017,4.7172-26.9082s-.9434-21.9111-4.7172-27.174c-3.7726-5.2646-10.3756-7.0859-20.7524-5.995Z"/><path class="cls-1" d="M304.368,429.6314l33.9595-3.569V657.171l-33.9595,3.57Z"/><path class="cls-1" d="M399.3243,530.3323l-2.83-10.3945-1.8858.1991v131.12l-31.13,3.2709V423.4189l30.1857-3.1724,33.0172,116.9581,2.83,10.3923,1.8858-.198V416.28l31.13-3.2721V644.1174l-30.1858,3.173Z"/><path class="cls-1" d="M549.8113,583.5445,533.0919,473.5l-.968-7.4018-1.4541.1657V585.7229l-24.2313,2.758V410.3826l31.9858-3.64,15.5079,79.6508,1.21,9.3121.4851-.0545,1.2116-9.5886,15.5078-83.1815,31.9847-3.6414V577.3376l-24.23,2.758V460.6371l-1.4541.1652-.969,7.6227-16.72,113.85Z"/><path class="cls-1" d="M616.4486,575.9592l26.896-181.1606,31.9847-3.6409,26.897,175.0366-25.4429,2.896-4.8452-35.7952-25.2015,2.8692-4.8462,36.8978Zm44.3419-125.2338-.7265-4.5209-1.4541.1658-.7265,4.6861-7.512,57.0716,17.931-2.0415Z"/><path class="cls-1" d="M741.9633,468.8667l-2.1806-7.99-1.4541.1658V562.0845L714.34,564.8159V386.7175l23.2623-2.6484,25.443,89.91,2.1806,7.99,1.4541-.1658V380.7593l23.9877-2.7308V556.1268l-23.2612,2.6479Z"/><path class="cls-1" d="M810.0515,375.8223l26.1694-2.9788V550.9423l-26.1694,2.9783Z"/><path class="cls-1" d="M848.3355,549.5628l26.8959-181.16,31.9847-3.6408L934.1132,539.799l-25.443,2.896L903.8251,506.9l-25.2015,2.8681-4.8463,36.8989ZM892.6773,424.33l-.7265-4.5209-1.4541.1652-.7265,4.6866-7.5119,57.0711,17.931-2.0409Z"/></g></svg>