<svg xmlns="http://www.w3.org/2000/svg" viewBox="0 0 201.42 185.62"><defs><style>.cls-1{fill:#e74138;}</style></defs><g id="Layer_2" data-name="Layer 2"><g id="Layer_1-2" data-name="Layer 1"><path class="cls-1" d="M161.45,103.37a64.75,64.75,0,0,0,16.73-10.51A99.52,99.52,0,0,0,186.79,84a67.12,67.12,0,0,0,6.7-9.28A45,45,0,0,0,198,63.93a74.06,74.06,0,0,0,3.3-19.68c0-13.5-8.05-43.43-55.76-43.09C101.39,1.47,57.21,1,13,.82Q31.57,15.7,50.5,30.19c-.08.25-.17.5-.25.75Q24.15,108.43,0,185.62q32.76-5,65.61-9.3,9.9-30.43,20-60.89,9.43,28,19.13,56,29.88-3.47,59.8-6.44-10.17-27.78-20-55.57A113.25,113.25,0,0,0,161.45,103.37ZM141.34,57a25.3,25.3,0,0,1-1.59,4.67A21.79,21.79,0,0,1,137,66.26a10.26,10.26,0,0,1-3.75,3.19,42,42,0,0,1-14.47,2.9l-18.83.9q5.37-15.81,10.8-31.66l15.88-.41h.69c4.29,0,8.63,1,11.27,3.22a9.46,9.46,0,0,1,2.83,4.54,16.52,16.52,0,0,1,.47,4.6A19.58,19.58,0,0,1,141.34,57Z"/><path class="cls-1" d="M27,.82l0,0h0Z"/><path class="cls-1" d="M161.55,102.55A64.92,64.92,0,0,0,178.28,92a99.29,99.29,0,0,0,8.6-8.84,66.32,66.32,0,0,0,6.71-9.28,45,45,0,0,0,4.54-10.81,74,74,0,0,0,3.29-19.68c.05-13.5-8-43.43-55.76-43.09C101.49.65,57.31.14,13.13,0Q31.67,14.88,50.6,29.37c-.09.25-.17.5-.25.75Q24.23,107.61.1,184.8q32.76-5,65.61-9.3,9.9-30.43,20-60.89,9.45,28,19.13,56,29.88-3.47,59.81-6.44-10.17-27.78-20-55.57A113.25,113.25,0,0,0,161.55,102.55ZM141.43,56.21a24.51,24.51,0,0,1-1.58,4.67,22.22,22.22,0,0,1-2.77,4.56,10.26,10.26,0,0,1-3.75,3.19,42,42,0,0,1-14.47,2.9l-18.83.9q5.37-15.81,10.8-31.66l15.88-.41h.69c4.29,0,8.63,1,11.27,3.22a9.44,9.44,0,0,1,2.82,4.54,15.8,15.8,0,0,1,.47,4.6A18.7,18.7,0,0,1,141.43,56.21Z"/></g></g></svg>