<svg xmlns="http://www.w3.org/2000/svg" viewBox="0 0 470.3 164.16"><defs><style>.cls-1{fill:#070606;}.cls-2{fill:#ffe500;}.cls-3{fill:none;}</style></defs><g id="Layer_2" data-name="Layer 2"><g id="Layer_1-2" data-name="Layer 1"><path class="cls-1" d="M470.3,25.43,438.92,0,378.81,11.43,364.82,0l-46,6-7.48-6-100.52,7-8.63-7L149,26.36,127.93,9c.3.23-68.52,15.75-68.52,15.75L0,124.21l31.38,25.4q22.08-3.39,44.22-6.27,3.16-9.75,6.38-19.49l20,16.2q20.15-2.33,40.31-4.34c-1.17-3.18-2.31-6.36-3.47-9.55L149.76,135q22.13-2.07,44.29-3.64c.85-2.33,1.72-4.67,2.58-7l7.79,6.31q48.95-3.09,97.87-3.82,1.24-3.15,2.48-6.29l7.66,6.19c4.07,0,33.53.06,44.19.25l6.68-17.07,22,17.83q22.05.76,44.08,2.09-6-25.25-12.07-50.36C434.48,62.23,453.26,43.14,470.3,25.43Z"/><path class="cls-2" d="M98.33,0H9.16C17.49,6.72,33.92,19.8,33.86,20,33.06,22.36,2.72,115.53,0,124.21q22.08-3.39,44.22-6.27,6.68-20.5,13.5-41,6.36,18.87,12.89,37.74,20.15-2.33,40.31-4.34c-4.57-12.48-13.5-37.44-13.5-37.44C136.51,67.51,159.72,0,98.33,0ZM83.58,47.55c-9.79.51-15,.87-16.23.93Q71,37.82,74.62,27.14c4.29-.11,8.59-.28,12.87-.28C99.73,26.86,98.67,46.78,83.58,47.55Z"/><path class="cls-2" d="M158.73,0l-.07.18c-3.09,8.17-37,100.27-40.29,109.39q22.14-2.08,44.3-3.65C165.88,97.17,192.11,26.57,202.22,0,187.74,0,173.21.08,158.73,0Z"/><path class="cls-2" d="M311.37,0h-97.8c-.9,2.32-7.31,18.88-9.58,24.76q20.61-.19,41.21-.27c-5.3,4.53-57.47,50.56-62.6,55.26q-4.78,12.75-9.56,25.47,48.94-3.09,97.87-3.82,4.72-12,9.5-24.12-20.62.14-41.25.55c10.25-9,57.06-48.9,62.3-53.31Z"/><path class="cls-2" d="M438.92,0H390.29c-3.65,3.66-34.92,34.9-41.67,41.6,5.26-13.52,10.94-28,16.2-41.6-14.48-.12-29.09.08-43.57,0-.79,2-27.8,69.89-40.2,101.31,4.07,0,38.86.15,44.19.24,3.08-7.88,15.44-39.48,18.53-47.41q5.09,24,10.17,48.17,22.05.77,44.08,2.09Q392,79.19,386,54.08C390.23,49.77,426.14,13.31,438.92,0Z"/><line class="cls-3" x1="398.42" y1="104.83" x2="429.42" y2="129.83"/><path class="cls-1" d="M409.32,121.92v-.12h-.13v-.11h-.14v-.11h-.13v-.11h-.14v-.11h-.14v-.11h-.13v-.11h-.14V121h-.13v-.11h-.14v-.12H408v-.11h-.14v-.11h-.14v-.11h-.13v-.11h-.14v-.11h-.13v-.11h-.14V120H407v-.11h-.14v-.12h-.14v-.11h-.13v-.11h-.14v-.11h-.13v-.11h-.14v-.11h-.14v-.11h-.13V119h-.14v-.11h-.13v-.12h-.14v-.11h-.13v-.11h-.14v-.11h-.14v-.11H405v-.11h-.14v-.11h-.13V118h-.14v-.11h-.14v-.12h-.13v-.11h-.14v-.11H404v-.11h-.14v-.11h-.13v-.11h-.14v-.11h-.14V117h-.13v-.11h-.14v-.12h-.13v-.11h-.14v-.11h-.13v-.11h-.14v-.11h-.14v-.11h-.13v-.11h-.14V116h-.13v-.11H402v-.12h-.14v-.11h-.13v-.11h-.14v-.11h-.13v-.11h-.14v-.11h-.13v-.11H401V115h-.14v-.11h-.13v-.12h-.14v-.11h-.13v-.11h-.14v-.11h-.14v-.11h-.13v-.11H400v-.11h-.13V114h-.14v-.11h-.13v-.12h-.14v-.11h-.14v-.11h-.13v-.11H399v-.11h-.13v-.11h-.14v-.11h-.13V113h-.14v-.11H384v12l-1.74-3h-.07l-.06-.12h-.07l-.07-.11h-.07l-.07-.11h-.07l-.06-.11h-.07l-.07-.11h-.07l-.06-.11h-.07l-.07-.11h-.07l-.06-.11h-.07l-.07-.11H381l-.07-.12h-.07l-.06-.11h-.07l-.07-.11h-.07l-.06-.11h-.07l-.07-.11h-.07l-.07-.11h-.07l-.06-.11H380L380,120h-.07l-.06-.11h-.07l-.07-.12h-.07l-.06-.11h-.07l-.07-.11h-.07l-.07-.11h-.07l-.06-.11h-.07l-.07-.11h-.07l-.06-.11h-.07l-.07-.11h-.07l-.06-.11h-.07l-.07-.12h-.07l-.07-.11h-.07l-.06-.11h-.07l-.07-.11H378l-.06-.11h-.07l-.07-.11h-.07l-.07-.11h-.07l-.06-.11h-.07l-.07-.11h-.07l-.06-.12h-.07l-.07-.11H377l-.06-.11h-.07l-.07-.11h-.07l-.07-.11h-.07l-.06-.11h-.07l-.07-.11h-.07l-.06-.11h-.07l-.07-.11h-.07l-.06-.12H376l-.06-.11h-.07l-.07-.11h-.07l-.06-.11h-.07l-.07-.11h-.07l-.06-.11h-.07l-.07-.11h-.07l-.07-.11H375l-.06-.11h-.07l-.07-.12h-.07l-.06-.11h-.07l-.07-.11h-.07l-.06-.11h-.07l-.07-.11h-.07l-.07-.11h-.07l-.06-.11h-.07l-.07-.11h-.07l-.06-.11h-.07l-.07-.12h-.07l-.07-.11h-.07l-.06-.11h-.07l-.07-.11h-.07l-.06-.11H373l-.07-.11h-.07l-.06-.11h-.07l-.07-.11h-.07l-.07-.11h-.07l-.06-.12h-.07l-.07-.11h-.07l-.06-.11H372l-.07-.11h-.07l-.06-.11h-.08l-.06-.11h-.07l-.07-.11h-.07l-.06-.11h-.07l-.07-.11h-14.5v4h0v-.12h-.13v-.11h-.14v-.11h-.14v-.11h-.13v-.11H356v-.11h-.13v-.11h-.14V116h-.13v-.11h-.14v-.12h-.14v-.11h-.13v-.11h-.14v-.11H355v-.11h-.14v-.11h-.14v-.11h-.13V115h-.14v-.11h-.13v-.12h-.14v-.11H354v-.11h-.14v-.11h-.14v-.11h-.13v-.11h-.14v-.11h-.13V114h-.14v-.11h-.14v-.12h-.13v-.11h-.14v-.11h-.13v-.11h-.14v-.11h-.13v-.11h-.14v-.11h-.14V113H352v-.11H336.86v6.77h-.12v-.11h-.14v-.11h-.14v-.11h-.13v-.11h-.14v-.11h-.13V119h-.14v-.11h-.13v-.12h-.14v-.11h-.14v-.11h-.13v-.11h-.14v-.11h-.13v-.11H335v-.11h-.14V118h-.13v-.11h-.14v-.12h-.13v-.11h-.14v-.11h-.13v-.11H334v-.11h-.14v-.11h-.13v-.11h-.14V117h-.13v-.11h-.14v-.12h-.14v-.11h-.13v-.11h-.14v-.11h-.13v-.11h-.14v-.11h-.13v-.11h-.14V116h-.14v-.11h-.13v-.12H332v-.11h-.13v-.11h-.14v-.11h-.13v-.11h-.14v-.11h-.14v-.11h-.13V115H331v-.11h-.13v-.12h-.14v-.11h-.14v-.11h-.13v-.11h-.14v-.11h-.13v-.11h-.14v-.11H330V114h-.14v-.11h-.14v-.12h-.13v-.11h-.14v-.11h-.13v-.11h-.14v-.11H329v-.11h-.13v-.11h-.14V113h-.13v-.11H313.48v3.33h-.09v-.11h-.14V116h-.13v-.11H313v-.12h-.14v-.11h-.13v-.11h-.14v-.11h-.13v-.11h-.14v-.11h-.13v-.11H312V115h-.14v-.11h-.13v-.12h-.14v-.11h-.13v-.11h-.14v-.11h-.13v-.11h-.14v-.11h-.14v-.11h-.13V114h-.14v-.11h-.13v-.12h-.14v-.11h-.14v-.11h-.13v-.11H310v-.11h-.13v-.11h-.14v-.11h-.13V113h-.14v-.11H281.6v35h0l-.13-.11-.14-.11-.13-.11-.14-.11-.13-.12-.14-.11-.14-.11-.13-.11-.14-.11-.13-.11-.14-.11-.14-.11-.13-.11-.14-.12-.13-.11-.14-.11-.13-.11-.14-.11-.14-.11-.13-.11-.14-.11-.13-.11-.14-.12-.14-.11-.13-.11-.14-.11-.13-.11-.14-.11-.13-.11-.14-.11-.14-.11-.13-.12-.14-.11-.13-.11-.14-.11-.14-.11-.13-.11-.14-.11-.13-.11-.14-.11-.13-.12-.14-.11-.14-.11-.13-.11-.14-.11-.13-.11-.14-.11-.13-.11-.14-.11a7,7,0,1,0-8.89,10.8l.14.11.13.11.14.12.13.11.14.11.14.11.13.11.14.11.13.11.14.11.14.11.13.12.14.11.13.11.14.11.13.11.14.11.14.11.13.11.14.11.13.12.14.11.14.11.13.11.14.11.13.11.14.11.13.11.14.11.14.12.13.11.14.11.13.11.14.11.13.11.14.11.14.11.13.11.14.12.13.11.14.11.13.11.14.11.14.11.13.11.14.11.13.11.14.12.14.11.13.11.14.11.13.11.14.11.13.11.14.11.14.11.13.12.14.11.13.11.14.11.14.11.13.11.14.11.13.11.14.11.13.12.14.11.14.11.13.11.14.11.13.11.14.11.13.11.14.11.14.12.13.11.14.11.13.11.14.11.14.11a7,7,0,0,0,10.94-2.58H288v.11h.14v.11h.14v.11h.13v.11h.14v.11h.13v.11h.14v.11h.13v.11h.14v.12h.14v.11h.13v.11h.14v.11h.13v.11h.14v.11h.14v.11H290v.11h.14v.11h.13v.12h.14v.11h.13v.11h.14v.11h.14v.11H291v.11h.14v.11h.13v.11h.14v.11h.13v.12h.14v.11h.14v.11h.13v.11h.14v.11h.13v.11h.14v.11h.14v.11h.13v.11h15.22V148.94h9.09a14.19,14.19,0,0,0,1.93,2l.13.11.14.11.14.11.13.11.14.12.13.11.14.11.13.11.14.11.14.11.13.11.14.11.13.11.14.12.13.11.14.11.14.11.13.11.14.11.13.11.14.11.14.11.13.12.14.11.13.11.14.11.13.11.14.11.14.11.13.11.14.11.13.12.14.11.14.11.13.11.14.11.13.11.14.11.13.11.14.11.14.12.13.11.14.11.13.11.14.11.13.11.14.11.14.11.13.11.14.12.13.11.14.11.14.11.13.11.14.11.13.11.14.11.13.11.14.12.14.11.13.11.14.11.13.11.14.11.14.11.13.11.14.11.13.12.14.11.13.11.14.11.14.11.13.11.14.11.13.11.14.11.13.12.14.11.14.11.13.11c3.36,2.92,8.18,4.31,14,4.31,7.41,0,13.17-2.25,16.39-7h.05v.11h.14v.11h.14v.11h.13v.12h.14v.11h.13v.11H361v.11h.13v.11h.14v.11h.14v.11h.13v.11h.14v.11h.13v.12h.14v.11h.14v.11h.13v.11h.14v.11h.13v.11h.14v.11h.13v.11h.14v.11H363v.12h.13v.11h.14v.11h.13v.11h.14v.11h.14v.11h.13v.11H364v.11h.13v.11h.14v.12h.13v.11h.14v.11h.14v.11h.13v.11h.14v.11h.13v.11h.14v.11h.13v.11h.14v.12h.14v.11h.13v.11h.14v.11H366v.11h.14v.11h.14v.11h.13v.11h.14v.11h.13v.12h.14v.11H367v.11h.14v.11h.14v.11h.13v.11h.14v.11h.13v.11h.14v.11h14.45V151.55l1.79,2.94h.07l.07.12h.07l.06.11h.07l.07.11h.07l.06.11h.07l.07.11h.07l.07.11h.06l.07.11H385l.07.11h.07l.06.11h.07l.07.12h.07l.07.11h.06l.07.11h.07l.07.11h.06l.07.11H386l.07.11h.07l.06.11h.07l.07.11h.07l.07.11h.06l.07.12h.07l.07.11h.07l.06.11h.07l.07.11h.07l.06.11h.07l.07.11h.07l.07.11h.06l.07.11h.07l.07.11h.07l.06.12h.07l.07.11H388l.07.11h.06l.07.11h.07l.07.11h.07l.06.11h.07l.07.11h.07l.06.11h.07l.07.11H389l.07.12h.06l.07.11h.07l.07.11h.07l.06.11h.07l.07.11h.07l.06.11h.07l.07.11h.07l.07.11h.06l.07.11h.07l.07.12h.07l.06.11h.07l.07.11h.07l.07.11h.06l.07.11h.07l.07.11H391l.06.11h.07l.07.11h.07l.06.11h.07l.07.12h.07l.07.11h.06l.07.11h.07l.07.11H392l.06.11h.07l.07.11h.07l.07.11h.06l.07.11h.07l.07.11h.07l.06.12h.07l.07.11h.07l.06.11H393l.07.11h.07l.07.11h.06l.07.11h.07l.07.11h.07l.06.11h.07l.07.11h.07l.06.12H394l.07.11h.07l.07.11h.06l.07.11h.07l.07.11h.07l.06.11h.07l.07.11h.07l.07.11h.06l.07.11h14.45V121.92Z"/><circle class="cls-2" cx="270.42" cy="147.83" r="7"/><polygon class="cls-2" points="281.6 154.49 296.82 154.49 296.82 139.94 307.91 139.94 307.91 129.13 296.82 129.13 296.82 124.83 309.45 124.83 309.45 112.92 281.6 112.92 281.6 154.49"/><path class="cls-2" d="M336.86,136.08c0,3.25-.11,6.12-4.14,6.12s-4.13-2.87-4.13-6.12V112.92H313.48v24.59c0,12.13,7.61,17.65,19.24,17.65S352,149.64,352,137.51V112.92H336.86Z"/><path class="cls-2" d="M384,112.92v12.46A62.11,62.11,0,0,0,385.28,136h-.44l-13.57-23h-14.5v41.57h14.45V141a48.31,48.31,0,0,0-.94-8.32h.44L384,154.49h14.45V112.92Z"/></g></g></svg>