<svg xmlns="http://www.w3.org/2000/svg" width="1000" height="1000" viewBox="0 0 1000 1000"><defs><style>.cls-1{fill:#f5e001;}.cls-2{fill:#ee4137;}.cls-3{fill:#ee4237;}</style></defs><g id="Layer_2" data-name="Layer 2"><path class="cls-1" d="M818.3982,87.7577H184.0406a64.1794,64.1794,0,0,0-64.1744,64.1744V552.5235a281.66,281.66,0,0,0,140.8272,243.92L469.1323,916.785a64.1632,64.1632,0,0,0,64.1745,0L741.7454,796.4436a281.6594,281.6594,0,0,0,140.8274-243.92V151.9321A64.1794,64.1794,0,0,0,818.3982,87.7577Zm-662.88,243.1785v0Z"/><path class="cls-2" d="M792.2964,74.6155H207.7036a98.6787,98.6787,0,0,0-98.5668,98.5667V542.3475A298.988,298.988,0,0,0,258.63,801.2758L450.7167,912.1766a98.5509,98.5509,0,0,0,98.5668,0L741.37,801.2758A298.9882,298.9882,0,0,0,890.8632,542.3475V173.1822A98.6786,98.6786,0,0,0,792.2964,74.6155Zm85.4246,467.732A285.8454,285.8454,0,0,1,734.7992,789.8948L542.7123,900.7955a85.411,85.411,0,0,1-85.4245,0L265.2009,789.8948A285.8454,285.8454,0,0,1,122.2791,542.3475V173.1822a85.5231,85.5231,0,0,1,85.4245-85.4245H792.2964a85.5231,85.5231,0,0,1,85.4246,85.4245Z"/><path class="cls-3" d="M792.2964,114.0421H207.7036a59.1447,59.1447,0,0,0-59.14,59.14V542.3475A259.5639,259.5639,0,0,0,278.3431,767.1322L470.43,878.033a59.1294,59.1294,0,0,0,59.14,0L721.6569,767.1322a259.5633,259.5633,0,0,0,129.78-224.7847V173.1822A59.1447,59.1447,0,0,0,792.2964,114.0421ZM181.4192,338.1435V189.9976a43.1037,43.1037,0,0,1,43.1-43.1Z"/><path class="cls-2" d="M207.7036,114.0421H500V885.9579a59.0836,59.0836,0,0,1-29.57-7.9249L278.3431,767.1322A259.5639,259.5639,0,0,1,148.5636,542.3475V173.1822A59.1447,59.1447,0,0,1,207.7036,114.0421Z"/><path class="cls-2" d="M500,74.6155V87.7577H207.7036a85.5231,85.5231,0,0,0-85.4245,85.4245V542.3475A285.8454,285.8454,0,0,0,265.2009,789.8948L457.2878,900.7955A85.5076,85.5076,0,0,0,500,912.2423v13.1422a98.6874,98.6874,0,0,1-49.2834-13.2079L258.63,801.2758a298.988,298.988,0,0,1-149.493-258.9283V173.1822a98.6787,98.6787,0,0,1,98.5668-98.5667Z"/><path class="cls-1" d="M174.4237,182.5361l39.0571,32.0106c.0886-.2664.176-.5325.2647-.7989Q193.8723,198.3423,174.4237,182.5361Z"/><path class="cls-1" d="M330.1862,291.5181a67.7192,67.7192,0,0,0,17.5591-11.1674,105.2223,105.2223,0,0,0,9.0269-9.3941,71.124,71.124,0,0,0,7.0377-9.8586,48.2659,48.2659,0,0,0,4.7653-11.4945,79.59,79.59,0,0,0,3.4581-20.91c.0494-14.3449-8.4427-46.1576-58.52-45.7987-46.3626.3322-92.727-.211-139.0894-.3589q19.4589,15.8169,39.3218,31.2117c-.0887.2664-.1761.5325-.2647.7989q-27.3972,82.3563-52.736,164.389,34.3826-5.3356,68.86-9.89,10.3881-32.3305,21.0263-64.703,9.9027,29.75,20.0744,59.5205,31.3567-3.6732,62.7638-6.84-10.67-29.5279-21.0187-59.0561A117.9134,117.9134,0,0,0,330.1862,291.5181Zm-21.11-49.24a26.4322,26.4322,0,0,1-1.6641,4.961,23.6845,23.6845,0,0,1-2.9051,4.8449,10.7977,10.7977,0,0,1-3.9378,3.3882,43.6149,43.6149,0,0,1-15.1874,3.082c-7.8976.38-11.8515.57-19.76.96q5.6295-16.8141,11.3321-33.65c6.67-.18,9.9991-.2639,16.6682-.4328.2415-.006.4824-.0089.7244-.0089,4.4994,0,9.0539,1.0343,11.8295,3.4182a10.0738,10.0738,0,0,1,2.9622,4.8237,17.634,17.634,0,0,1,.4938,4.8869A20.8555,20.8555,0,0,1,309.0761,242.2782Z"/><path class="cls-1" d="M407.93,183.1166q-32.376,86.6049-62.8448,172.7877,34.4726-3.2773,68.9775-5.742,30.0081-83.201,61.53-166.8557Z"/><path class="cls-1" d="M422.7408,204.8809c-15.7951,42.4405-31.243,84.7825-46.11,126.3972q11.07-.9273,22.05-1.7622c14.6818-40.551,30.0459-82.293,45.85-124.5744Z"/><path class="cls-1" d="M630.2037,221.7906q7.5135-18.8568,15.0592-37.7558-76.0074-.4116-152.0184-.6755-7.4494,19.4268-14.8255,38.8113,32.0843-.3008,64.1746-.4328c-33.041,28.6045-65.5821,57.5467-97.4859,87.1433q-7.466,20.1076-14.8894,40.1729,76.2126-4.8765,152.408-6.027,7.3614-18.9993,14.7858-38.03-32.1129.2058-64.2367.8654C565.1212,277.5323,597.5236,249.614,630.2037,221.7906Z"/><path class="cls-1" d="M463.3775,321.3972l-1.4993,4.0412q8.83-.4706,17.6685-.894l39.4965-35.0234c27.2419-24.1591,56.9735-49.941,93.268-80.8747l1.218-3.0547q-9.5838-.0479-19.1707-.0925l-37.8267,32.749C522.4369,267.77,491.9152,295.0122,463.3775,321.3972Z"/><path class="cls-1" d="M841.6941,185.7554q-37.4615-.4434-74.9145-.8128-31.5606,32.1246-63.1409,63.7848,12.2922-31.9821,24.5985-64.112-33.8274-.2692-67.6457-.4855-31.3251,79.781-62.185,158.7494,9.5154-.0657,19.0269-.0657,24.9056,0,49.7923.4562,14.4105-37.2861,28.8668-74.7621,7.9182,37.9035,15.8328,75.9548,34.3333,1.2033,68.6352,3.2933-9.3651-39.8036-18.7971-79.4064Q801.8359,227.5485,841.6941,185.7554Z"/><path class="cls-1" d="M174.4237,182.5361l39.0571,32.0106c.0886-.2664.176-.5325.2647-.7989Q193.8723,198.3423,174.4237,182.5361Z"/><path class="cls-1" d="M330.1862,291.5181a67.7192,67.7192,0,0,0,17.5591-11.1674,105.2223,105.2223,0,0,0,9.0269-9.3941,71.124,71.124,0,0,0,7.0377-9.8586,48.2659,48.2659,0,0,0,4.7653-11.4945,79.59,79.59,0,0,0,3.4581-20.91c.0494-14.3449-8.4427-46.1576-58.52-45.7987-46.3626.3322-92.727-.211-139.0894-.3589q19.4589,15.8169,39.3218,31.2117c-.0887.2664-.1761.5325-.2647.7989q-27.3972,82.3563-52.736,164.389,34.3826-5.3356,68.86-9.89,10.3881-32.3305,21.0263-64.703,9.9027,29.75,20.0744,59.5205,31.3567-3.6732,62.7638-6.84-10.67-29.5279-21.0187-59.0561A117.9134,117.9134,0,0,0,330.1862,291.5181Zm-21.11-49.24a26.4322,26.4322,0,0,1-1.6641,4.961,23.6845,23.6845,0,0,1-2.9051,4.8449,10.7977,10.7977,0,0,1-3.9378,3.3882,43.6149,43.6149,0,0,1-15.1874,3.082c-7.8976.38-11.8515.57-19.76.96q5.6295-16.8141,11.3321-33.65c6.67-.18,9.9991-.2639,16.6682-.4328.2415-.006.4824-.0089.7244-.0089,4.4994,0,9.0539,1.0343,11.8295,3.4182a10.0738,10.0738,0,0,1,2.9622,4.8237,17.634,17.634,0,0,1,.4938,4.8869A20.8555,20.8555,0,0,1,309.0761,242.2782Z"/><path class="cls-1" d="M407.93,183.1166q-32.376,86.6049-62.8448,172.7877,34.4726-3.2773,68.9775-5.742,30.0081-83.201,61.53-166.8557Z"/><path class="cls-1" d="M630.2037,221.7906q7.5135-18.8568,15.0592-37.7558-76.0074-.4116-152.0184-.6755-7.4494,19.4268-14.8255,38.8113,32.0843-.3008,64.1746-.4328c-33.041,28.6045-65.5821,57.5467-97.4859,87.1433q-7.466,20.1076-14.8894,40.1729,76.2126-4.8765,152.408-6.027,7.3614-18.9993,14.7858-38.03-32.1129.2058-64.2367.8654C565.1212,277.5323,597.5236,249.614,630.2037,221.7906Z"/><path class="cls-1" d="M841.6941,185.7554q-37.4615-.4434-74.9145-.8128-31.5606,32.1246-63.1409,63.7848,12.2922-31.9821,24.5985-64.112-33.8274-.2692-67.6457-.4855-31.3251,79.781-62.185,158.7494,9.5154-.0657,19.0269-.0657,24.9056,0,49.7923.4562,14.4105-37.2861,28.8668-74.7621,7.9182,37.9035,15.8328,75.9548,34.3333,1.2033,68.6352,3.2933-9.3651-39.8036-18.7971-79.4064Q801.8359,227.5485,841.6941,185.7554Z"/><path class="cls-1" d="M851.4365,660.2349c-233.3637-44.8855-469.5092-60.2905-702.873-46.2151V416.9976c233.3638-44.8855,469.5093-60.2906,702.873-46.2151ZM233.2686,481.8033c0-5.5219-1.09-12.0084-4.8911-16.91-3.8052-4.7687-10.6919-7.4858-22.4566-5.7324-9.2344,1.407-15.5635,5.3415-19.7275,10.1009a24.4927,24.4927,0,0,0-5.79,15.9183,17.7088,17.7088,0,0,0,1.628,7.4743A43.0193,43.0193,0,0,0,191.62,506.409c4.3438,4.36,8.5069,8.4,12.31,11.9855,1.8115,1.802,3.4346,3.63,5.0669,5.3321,2.8975,3.572,5.0732,7.11,5.0708,10.3028.001,6.2586-2.1719,10.9514-7.9678,11.419-4.16.34-6.3335-1.5876-7.6015-4.6369-1.4473-2.9019-1.628-6.9621-1.6285-11.042q-9.5933,1.5771-19.1811,3.204c-.0024,7.1494.9067,13.9371,4.8848,18.8022,3.9809,4.865,11.0356,7.692,23.5263,6.778,10.6826-.7772,17.3819-4.1516,21.5513-9.0135,4.1675-4.8552,5.6187-11.1647,5.6177-17.7652,0-5.3887-2.3531-10.3169-5.7974-14.9669a122.1671,122.1671,0,0,0-12.498-13.743c-3.8028-3.7275-7.6045-7.1477-10.503-10.5124-2.8965-3.3647-4.8857-6.5439-4.8867-9.8391,0-5.6658,1.6309-9.7041,6.6987-10.4946,3.0816-.3975,5.0679,1.2069,6.3374,3.71,1.27,2.6345,1.4478,6.2084,1.4478,9.4016Q223.6658,483.5421,233.2686,481.8033ZM243.773,554.961q9.7851-.5916,19.5747-1.1144v-40.354c8.521-.6693,17.0483-3.2148,23.5757-8.4339,6.5288-5.2119,10.8862-13.2534,10.8862-25.0369s-4.3535-19.2348-10.8862-23.2873c-6.5274-4.06-15.0547-4.7618-23.5757-3.7722q-9.79,1.1353-19.5747,2.34Zm19.5747-86.9c5.9863-.6382,9.7959.0736,11.9673,2.3447,2.1782,2.2711,2.7231,6.2391,2.7221,11.9176.002,5.6789-.5449,9.4686-2.7221,11.8665-2.1695,2.5374-5.982,3.6811-11.9673,4.2055Zm95.2715-2.5647a22.8367,22.8367,0,0,0-3.271-11.2344,19.1086,19.1086,0,0,0-7.8086-7.3328c-3.627-1.8612-8.5352-2.8688-15.0684-2.2682a32.1821,32.1821,0,0,0-15.251,4.9874,24.111,24.111,0,0,0-7.6206,8.5012,24.787,24.787,0,0,0-3.2666,11.4388v61.0163A22.3864,22.3864,0,0,0,309.6,541.7358a19.638,19.638,0,0,0,7.6206,7.3436c3.6294,2.14,8.7154,3.26,15.251,3.0784,6.5332-.1811,11.4375-1.589,15.0684-3.99a22.162,22.162,0,0,0,7.8086-8.0163,24.8417,24.8417,0,0,0,3.271-11.7135Zm-19.6128,63.6394a8.393,8.393,0,0,1-.7256,3.9061c-.7271,2.1825-2.3628,3.9613-5.81,4.0868a5.88,5.88,0,0,1-3.8135-.9993c-1.8144-1.5-2.7226-3.4572-2.7241-6.4518q-.0007-30.8691,0-61.7381a9.0955,9.0955,0,0,1,.7276-3.91,6.453,6.453,0,0,1,5.81-4.34,6.1964,6.1964,0,0,1,3.9927.82c1.8188,1.5756,2.5395,3.5318,2.5425,6.4061Zm87.5586,20.7684q-6.2718-26.9329-12.5406-53.4588c7.45-4.4144,10.9038-14.4892,10.9048-25.5189.001-21.012-9.9961-31.5374-33.438-29.8725q-9.8123.6862-19.6211,1.4414.0008,53.8341,0,107.6684,9.8109-.1424,19.6211-.216V504.0193q2.6361-.0893,5.2715-.1735,5.0874,22.8711,10.1743,46.0284Q416.7485,549.8547,426.565,549.9039Zm-35.0738-92.997c2.729-.1658,6.36-.2361,9.2676,1.6845s5.2676,5.9813,5.2691,13.7514c-.003,7.7715-2.36,11.9-5.2691,14.1015-2.9067,2.2007-6.5405,2.6438-9.2676,2.76Zm57.607-2.3011v95.5017q9.8166.1281,19.6328.3251V453.8905q9.2717-.3054,18.5449-.5494.0008-8.674,0-17.3483-28.3623,1.0137-56.7163,2.601v16.8137Q439.8284,454.976,449.0982,454.6058Zm97.62,10.0632c-.002-6.6144-1.0938-14.5283-4.9077-20.9228-3.8189-6.2349-10.7281-10.4444-22.542-9.9865-9.274.396-15.6363,4.2316-19.8145,9.3758-4.1836,5.3069-5.8154,12.0854-5.8179,18.3578a26.741,26.741,0,0,0,1.6358,9.2292,62.6793,62.6793,0,0,0,9.6328,17.8695c4.3643,5.8348,8.5469,11.2479,12.3648,16.06,1.8159,2.4049,3.4516,4.816,5.0878,7.0737,2.91,4.67,5.087,9.1981,5.09,13.03-.0015,7.5108-2.1773,12.8658-7.9991,12.6821-4.184-.1279-6.3637-2.7252-7.6333-6.5567-1.4531-3.6777-1.6337-8.5839-1.6362-13.49q-9.6357.6321-19.2715,1.314c-.0019,8.6149.91,16.9163,4.9082,23.2945,4.001,6.3782,11.09,10.691,23.6328,11.1806,10.7295.4232,17.45-2.785,21.6329-8.0848,4.186-5.2929,5.6372-12.6652,5.6367-20.5711.001-6.4544-2.3653-12.6594-5.8169-18.6815a171.7118,171.7118,0,0,0-12.5435-18.1306c-3.8188-4.9806-7.6372-9.6-10.5449-14.037-2.9126-4.4361-4.9067-8.5317-4.9082-12.4927.002-6.8116,1.6357-11.4393,6.7266-11.6868,3.0888-.0515,5.0918,2.1493,6.3632,5.3277,1.272,3.3363,1.4546,7.65,1.4532,11.4824Q537.0835,465.4628,546.7183,464.669ZM617.95,515.2151v16.9067a10.5588,10.5588,0,0,1-.7261,4.4735c-.9116,2.4544-2.5444,4.3536-6.7236,4.0908a5.818,5.818,0,0,1-3.8154-1.567,11.61,11.61,0,0,1-3.09-7.8289V459.34a16.47,16.47,0,0,1,.91-4.4712c.9092-2.1456,2.543-4.4525,5.9961-4.3971a6.93,6.93,0,0,1,4.5425,1.4156,10.23,10.23,0,0,1,2.9072,7.7562V476.55q9.1751.2963,18.3467.6526V460.1382a32.2332,32.2332,0,0,0-3.2715-13.4221,24.383,24.383,0,0,0-7.8105-9.4044c-3.6338-2.575-8.5352-4.3044-15.0767-4.3522s-11.6313,1.5985-15.2651,4.0641a23.0565,23.0565,0,0,0-7.63,9.0422,30.026,30.026,0,0,0-3.271,12.978v71.2288a31.5466,31.5466,0,0,0,3.271,13.3423,24.9365,24.9365,0,0,0,7.63,9.3735c3.6362,2.8775,8.7212,4.7144,15.2651,5.1809s11.4458-.6669,15.0767-3.0856a21.04,21.04,0,0,0,7.8105-8.5157,30.2308,30.2308,0,0,0,3.2715-13.276V516.2279Q627.1247,515.6915,617.95,515.2151Zm30.1475,44.5558q22.7907,1.9175,45.5664,4.206V546.5952q-12.9756-1.1935-25.958-2.2667V435.3511q-9.8021-.2811-19.6084-.4934Zm86.0132-121.7255V541.5689a11.5151,11.5151,0,0,1-.7247,4.71c-.725,2.5836-2.354,4.5347-5.8022,4.1731a5.8849,5.8849,0,0,1-3.8086-1.8063c-1.8105-2.1253-2.7178-4.6812-2.72-8.3806q.0008-51.4373,0-102.8745-9.7932-.4683-19.5923-.8677.0008,50.95,0,101.9009a36.023,36.023,0,0,0,3.2656,14.2785,27.6321,27.6321,0,0,0,7.62,10.2333c3.627,3.19,8.7051,5.33,15.2349,6.0709,6.5278.7416,11.4272-.2766,15.05-2.7021a20.7045,20.7045,0,0,0,7.794-8.7272,32.8954,32.8954,0,0,0,3.2617-13.9379V439.1422Q743.9035,438.5593,734.1109,438.0454Zm57.978,137.5706c11.5879,1.0376,19.3652-2.4276,23.8926-8.8048,4.5219-6.3708,6.3286-15.1875,6.33-25.3517q.0007-10.2567-2.1694-16.8931c-2.8965-9.0263-6.5146-14.5943-11.4-17.88,4.5264-3.7307,7.5967-7.0822,9.59-11.2963s2.5346-8.9609,2.5336-15.425c.001-13.4824-3.0761-22.6436-9.0463-28.8436-5.9712-6.2048-15.022-9.102-26.61-9.9233q-8.6008-.61-17.2056-1.1667V572.444Q780.0511,573.9779,792.0889,575.616Zm-4.5264-114.7944c1.6294.1323,5.4331.2564,8.69,2.7243,3.2593,2.4653,5.7906,7.0848,5.7925,16.4242,0,9.3384-2.5337,13.4775-5.7925,15.3417-3.2622,1.8637-7.059,1.3034-8.69,1.1459Zm0,53.6357c1.6294.1732,5.4331.2121,8.69,2.9443,3.2593,2.7289,5.7906,8.3285,5.7925,19.3145,0,10.9874-2.5337,15.9726-5.7925,17.9272-3.2622,1.9568-7.059,1.1088-8.69.9063Z"/><path class="cls-1" d="M560.355,728.6137q-9.2862,6.96-38.2108,29.174,2.4393,7.6872,7.1406,23.0686,4.7046,15.38,7.0244,22.949l-39.6731-27.22q.369,0-39.4271,27.22,13.6731-44.586,13.6731-45.6828,0-.1177-38.45-29.2355l43.8207-1.0967c2.44-.0786,3.8608-.123,4.2707-.123q4.8789-13.8831,15.7435-45.4368,9.522,26.49,15.99,45.1635a21.0759,21.0759,0,0,0,2.8085.4886Q531.7925,728.0056,560.355,728.6137Z"/></g></svg>