<svg id="Layer_1" data-name="Layer 1" xmlns="http://www.w3.org/2000/svg" width="932.5331" height="148.269" viewBox="0 0 932.5331 148.269"><defs><style>.cls-1{fill:#ffe500;}.cls-2{fill:#070606;}</style></defs><path class="cls-1" d="M542.1607,107.0882c-3.994,4.108-12.324,10.7258-28.4135,10.7258-23.1638,0-41.3073-15.29-41.3073-40.6229,0-25.4464,18.3714-40.6229,41.3073-40.6229,16.2034,0,24.99,6.7325,27.0439,8.9012l-5.7055,15.2911c-1.4835-1.9408-9.9274-8.216-20.3114-8.216-13.35,0-23.62,8.9-23.62,24.3055s10.7265,24.1908,23.62,24.1908c9.8135,0,16.8886-3.88,21.2245-8.3307Z"/><path class="cls-1" d="M630.5963,116.4452H610.5127l-5.5915-15.8616h-28.07l-5.5916,15.8616H552.0889L581.7573,37.596h19.1705ZM600.6992,86.207l-9.8135-28.3-9.8128,28.3Z"/><path class="cls-1" d="M688.1092,111.3109c-5.5915,4.4491-12.8945,6.5031-21.3384,6.5031-11.411,0-21.5664-5.9326-27.9563-11.8668l9.1284-13.465c5.7055,5.9342,14.492,9.9275,20.5393,9.9275,5.9341,0,10.4979-2.8524,10.4979-8.1014,0-5.3636-5.8194-7.4176-9.2423-8.6733-3.4236-1.2541-9.3569-3.3081-11.9814-4.4491-1.94-.913-5.9342-2.3966-9.357-5.7062-3.4236-3.195-6.162-7.7588-6.162-15.1764a22.1741,22.1741,0,0,1,8.216-17.23c4.45-3.7654,11.6389-6.2752,20.768-6.2752s19.6262,4.3359,24.99,9.6981L688.3371,59.39c-4.5638-4.5638-11.6389-7.9866-17.5723-7.9866s-10.27,2.2819-10.27,7.0736,4.4506,6.6193,7.9874,7.9881c3.4236,1.3688,9.243,3.4228,11.7536,4.4506,2.1679.7984,7.4169,2.8524,10.9544,6.39a20.5988,20.5988,0,0,1,6.162,15.1764A23.8478,23.8478,0,0,1,688.1092,111.3109Z"/><path class="cls-1" d="M734.78,116.4452H716.2948V37.7107H734.78Z"/><path class="cls-1" d="M829.49,116.4452H810.55L775.9743,63.0424s.3411,9.47.3411,17.8009v35.6019H758.2873V37.7107h19.741L811.804,90.6561s-.3426-8.9-.3426-17.23V37.7107H829.49Z"/><path class="cls-1" d="M890.7693,117.814c-23.3924,0-41.7638-15.1764-41.7638-40.6229S867.3769,36.455,890.7693,36.455s41.7638,15.29,41.7638,40.7361S914.1618,117.814,890.7693,117.814Zm0-65.6121c-13.1224,0-23.05,9.4717-23.05,24.5334s9.9275,24.6481,23.05,24.6481,23.05-9.5863,23.05-24.6481C913.8192,61.7868,903.8917,52.2019,890.7693,52.2019Z"/><path class="cls-2" d="M453.43,26.4482,423.1981,1.98l-57.91,10.9741L351.81,1.98,307.5234,7.7962,300.3147,1.98,203.4811,8.7381,195.1633,1.98l-51.2907,25.359L123.5986,10.631c.2814.2279-66.0134,15.1752-66.0134,15.1752L.35,121.6064l30.2324,24.4683q21.27-3.26,42.599-6.0421,3.0531-9.3837,6.1433-18.7728l19.283,15.6068q19.3983-2.244,38.8279-4.1785c-1.1223-3.067-2.2266-6.1347-3.3395-9.2022l10.5256,8.5187q21.326-2.0022,42.6717-3.5078c.8222-2.2508,1.6573-4.5053,2.4823-6.7571l7.5122,6.08q47.1478-2.9792,94.2849-3.6819c.7919-2.0185,1.5924-4.041,2.3861-6.06l7.3761,5.97c3.9245-.0268,32.3094.0518,42.5742.2386q3.2142-8.2129,6.4333-16.4452l21.2193,17.1738q21.24.735,42.46,2.0119-5.7935-24.3164-11.6285-48.51C418.92,61.9,437.0146,43.5034,453.43,26.4482Z"/><path class="cls-1" d="M95.0751,1.98H9.1724c8.0253,6.4416,23.8568,19.0378,23.802,19.2006C32.1976,23.4865,2.97,113.2415.35,121.6064q21.27-3.2595,42.5992-6.042,6.4263-19.7508,13.0075-39.5272,6.1264,18.174,12.4188,36.3612,19.3984-2.244,38.8279-4.1785C102.8028,96.1941,94.2,72.1424,94.2,72.1424,131.8609,66.9789,154.2227,1.98,95.0751,1.98ZM80.8662,47.7576c-9.4307.4834-14.4123.8345-15.6354.8941q3.4825-10.2717,7.01-20.5567c4.126-.11,8.2685-.27,12.3957-.27C96.43,27.8251,95.4107,47.0123,80.8662,47.7576Z"/><path class="cls-1" d="M153.2673,1.98c-.0227.06-.045.12-.0677.18-2.977,7.8646-35.67,96.599-38.81,105.3766q21.3258-2.0022,42.6718-3.5078c3.0941-8.4713,28.3595-76.49,38.1021-102.0487C181.21,1.9413,167.22,2.0184,153.2673,1.98Z"/><path class="cls-1" d="M300.3147,1.98H206.0963c-.8689,2.2378-7.0372,18.1932-9.2219,23.858q19.8483-.1836,39.7006-.2643c-5.11,4.3687-55.374,48.716-60.3081,53.2362q-4.6186,12.2838-9.2111,24.5417,47.1475-2.979,94.2848-3.6819,4.5542-11.6067,9.147-23.2328-19.866.1257-39.7389.5287c9.8813-8.6534,54.9708-47.11,60.0251-51.36C293.8724,17.9261,297.2027,9.679,300.3147,1.98Z"/><path class="cls-1" d="M423.1981,1.98h-46.85c-3.5154,3.5335-33.6385,33.627-40.1446,40.0817,5.07-13.0252,10.536-26.9985,15.607-40.0817-13.9512-.11-28.0283.0838-41.9738,0-.7658,1.9261-26.78,67.3306-38.7335,97.6,3.9245-.0268,37.4417.1452,42.574.2386,2.9716-7.5928,14.8758-38.0379,17.858-45.6726q4.8986,23.1555,9.7948,46.4012,21.24.7351,42.46,2.0118-5.7936-24.3162-11.6286-48.51C376.2928,49.8945,410.8862,14.7714,423.1981,1.98Z"/><polygon class="cls-2" points="445.785 4.358 448.223 4.358 448.223 12.054 451.084 12.054 451.084 4.358 453.522 4.358 453.522 1.962 445.785 1.962 445.785 4.358"/><polygon class="cls-2" points="465.686 1.962 462.344 1.962 460.62 7.476 458.871 1.962 455.545 1.962 454.784 12.054 457.612 12.054 457.883 6.964 459.497 12.054 461.72 12.054 463.315 6.99 463.606 12.054 466.432 12.054 465.686 1.962"/></svg>