<svg id="Layer_1" data-name="Layer 1" xmlns="http://www.w3.org/2000/svg" width="466.5331" height="214.269" viewBox="0 0 466.5331 214.269"><defs><style>.cls-1{fill:#ffe500;}</style></defs><path class="cls-1" d="M94.8168.0347H8.8309C16.864,6.4826,32.7108,19.091,32.656,19.2539,31.8784,21.5621,2.6223,111.4041,0,119.777q21.2909-3.2626,42.64-6.0478,6.4325-19.77,13.02-39.5655Q61.7928,92.3554,68.0913,110.56q19.4172-2.2462,38.8655-4.1826C102.5519,94.34,93.9412,70.2652,93.9412,70.2652,131.6382,65.0966,154.0216.0347,94.8168.0347ZM80.5941,45.8568c-9.44.4838-14.4262.8352-15.6506.895q3.486-10.2818,7.0172-20.5767c4.13-.11,8.2766-.27,12.4078-.27C96.1729,25.905,95.1527,45.1107,80.5941,45.8568Z"/><path class="cls-1" d="M153.0653.0347c-.0228.06-.045.12-.0678.18-2.98,7.8723-35.7048,96.6925-38.8478,105.4786q21.3465-2.004,42.7132-3.5111c3.097-8.48,28.387-76.5639,38.139-102.1476C181.0354-.0039,167.0317.0733,153.0653.0347Z"/><path class="cls-1" d="M300.2551.0347h-94.31c-.87,2.24-7.044,18.2109-9.2309,23.8812q19.8675-.1839,39.7391-.2646c-5.115,4.3729-55.4276,48.7631-60.3665,53.2877q-4.6232,12.2957-9.22,24.5655,47.1931-2.982,94.3761-3.6855,4.5584-11.6179,9.1558-23.2553-19.8852.1258-39.7774.5293c9.8909-8.6618,55.024-47.156,60.0832-51.4094C293.8065,15.9963,297.14,7.7413,300.2551.0347Z"/><path class="cls-1" d="M423.2574.0347H376.3617c-3.5188,3.5369-33.6711,33.66-40.1835,40.1205C341.2528,27.1174,346.7244,13.1306,351.8.0347c-13.9647-.11-28.0554.0839-42.0144,0-.7666,1.928-26.8063,67.3958-38.771,97.694,3.9283-.0268,37.478.1454,42.6152.2389,2.9745-7.6,14.89-38.0748,17.8753-45.7169q4.9032,23.178,9.8042,46.4461,21.26.7361,42.5013,2.0138-5.7993-24.34-11.64-48.5565C376.3067,47.9957,410.9337,12.8386,423.2574.0347Z"/><polygon class="cls-1" points="445.867 2.415 448.307 2.415 448.307 10.119 451.17 10.119 451.17 2.415 453.61 2.415 453.61 0.017 445.867 0.017 445.867 2.415"/><polygon class="cls-1" points="465.787 0.017 462.442 0.017 460.715 5.537 458.965 0.017 455.635 0.017 454.874 10.119 457.705 10.119 457.976 5.023 459.591 10.119 461.817 10.119 463.413 5.05 463.704 10.119 466.533 10.119 465.787 0.017"/><path class="cls-1" d="M93.1513,197.7553c-2.6186,2.6933-8.08,7.0322-18.6289,7.0322-15.187,0-27.0825-10.0244-27.0825-26.6338,0-16.6836,12.0449-26.6338,27.0825-26.6338,10.6236,0,16.3843,4.4141,17.731,5.836l-3.7407,10.0253c-.9727-1.2724-6.5088-5.3867-13.3169-5.3867-8.753,0-15.4864,5.835-15.4864,15.9356s7.0328,15.86,15.4864,15.86a19.0249,19.0249,0,0,0,13.9155-5.4619Z"/><path class="cls-1" d="M151.1328,203.89H137.9653l-3.666-10.3994H115.8955L112.23,203.89H99.6606l19.4517-51.6963h12.5688Zm-19.6016-19.8252L125.0971,165.51l-6.4336,18.5546Z"/><path class="cls-1" d="M188.84,200.5238c-3.666,2.917-8.4541,4.2637-13.99,4.2637-7.4815,0-14.14-3.89-18.3291-7.78l5.9848-8.8281c3.7407,3.8906,9.5015,6.5088,13.4663,6.5088,3.8907,0,6.8828-1.87,6.8828-5.3115,0-3.5166-3.8154-4.8633-6.0595-5.6866s-6.1348-2.1689-7.8555-2.9169a20.16,20.16,0,0,1-6.1348-3.7413,12.74,12.74,0,0,1-4.04-9.95,14.5376,14.5376,0,0,1,5.3867-11.2968c2.9175-2.4688,7.6309-4.1143,13.6162-4.1143s12.8677,2.8428,16.3843,6.3584l-5.1626,8.4541c-2.9922-2.9922-7.6308-5.2363-11.521-5.2363s-6.7334,1.4961-6.7334,4.6377,2.918,4.34,5.2368,5.2373c2.2447.8974,6.06,2.2441,7.7061,2.918a20.705,20.705,0,0,1,7.1821,4.1894,13.505,13.505,0,0,1,4.04,9.95A15.6354,15.6354,0,0,1,188.84,200.5238Z"/><path class="cls-1" d="M219.4394,203.89H207.32V152.2689h12.12Z"/><path class="cls-1" d="M281.5346,203.89H269.1167l-22.669-35.0127s.2237,6.209.2237,11.6709V203.89h-11.82V152.2689h12.9429l22.1445,34.7129s-.2246-5.8349-.2246-11.2968V152.2689h11.82Z"/><path class="cls-1" d="M321.7114,204.7875c-15.3369,0-27.3818-9.95-27.3818-26.6338s12.0449-26.708,27.3818-26.708,27.3818,10.0244,27.3818,26.708S337.0483,204.7875,321.7114,204.7875Zm0-43.0176c-8.6035,0-15.1123,6.21-15.1123,16.085s6.5088,16.16,15.1123,16.16,15.1123-6.2851,15.1123-16.16C336.8237,168.0541,330.3149,161.77,321.7114,161.77Z"/></svg>