<svg id="Layer_1" data-name="Layer 1" xmlns="http://www.w3.org/2000/svg" width="941.5331" height="120.269" viewBox="0 0 941.5331 120.269"><defs><style>.cls-1{fill:#ffe500;}</style></defs><path class="cls-1" d="M94.8168.2807H8.8309C16.864,6.7286,32.7108,19.337,32.656,19.5,31.8784,21.8081,2.6223,111.65,0,120.023q21.2909-3.2627,42.64-6.0478,6.4325-19.77,13.02-39.5655,6.1323,18.1917,12.4308,36.3965,19.4172-2.2463,38.8655-4.1826c-4.4049-12.0374-13.0156-36.1124-13.0156-36.1124C131.6382,65.3426,154.0216.2807,94.8168.2807ZM80.5941,46.1028c-9.44.4838-14.4262.8353-15.6506.895q3.486-10.2817,7.0172-20.5767c4.13-.11,8.2766-.27,12.4078-.27C96.1729,26.151,95.1527,45.3567,80.5941,46.1028Z"/><path class="cls-1" d="M153.0653.2807c-.0228.06-.045.12-.0678.18-2.98,7.8723-35.7048,96.6926-38.8478,105.4786q21.3465-2.004,42.7132-3.5111C159.96,93.9488,185.25,25.8644,195.0019.2807,181.0354.2421,167.0317.3193,153.0653.2807Z"/><path class="cls-1" d="M300.2551.2807h-94.31c-.87,2.24-7.044,18.2109-9.2309,23.8812q19.8675-.1839,39.7391-.2646c-5.115,4.3729-55.4276,48.7632-60.3665,53.2877q-4.6232,12.2956-9.22,24.5655,47.1931-2.982,94.3761-3.6855,4.5584-11.618,9.1558-23.2553-19.8852.1258-39.7774.5293c9.8909-8.6618,55.024-47.156,60.0832-51.4094C293.8065,16.2423,297.14,7.9873,300.2551.2807Z"/><path class="cls-1" d="M423.2574.2807H376.3617c-3.5188,3.5369-33.6711,33.66-40.1835,40.1205C341.2528,27.3634,346.7244,13.3766,351.8.2807c-13.9647-.11-28.0554.0839-42.0144,0-.7666,1.928-26.8063,67.3958-38.771,97.694,3.9283-.0268,37.478.1454,42.6152.2389,2.9745-7.6,14.89-38.0748,17.8753-45.7168q4.9032,23.1779,9.8042,46.446,21.26.736,42.5013,2.0138-5.7993-24.34-11.64-48.5565C376.3067,48.2417,410.9337,13.0846,423.2574.2807Z"/><polygon class="cls-1" points="445.867 2.661 448.307 2.661 448.307 10.365 451.17 10.365 451.17 2.661 453.61 2.661 453.61 0.263 445.867 0.263 445.867 2.661"/><polygon class="cls-1" points="465.787 0.263 462.442 0.263 460.715 5.783 458.965 0.263 455.635 0.263 454.874 10.365 457.705 10.365 457.976 5.269 459.591 10.365 461.817 10.365 463.413 5.296 463.704 10.365 466.533 10.365 465.787 0.263"/><path class="cls-1" d="M551.1607,86.0882c-3.994,4.108-12.324,10.7258-28.4135,10.7258-23.1638,0-41.3073-15.29-41.3073-40.6229,0-25.4464,18.3714-40.6229,41.3073-40.6229,16.2034,0,24.99,6.7325,27.0439,8.9012l-5.7055,15.2911c-1.4835-1.9408-9.9274-8.216-20.3114-8.216-13.35,0-23.62,8.9-23.62,24.3055s10.7265,24.1908,23.62,24.1908c9.8135,0,16.8886-3.88,21.2245-8.3307Z"/><path class="cls-1" d="M639.5963,95.4452H619.5127l-5.5915-15.8616h-28.07l-5.5916,15.8616H561.0889L590.7573,16.596h19.1705ZM609.6992,65.207l-9.8135-28.3-9.8128,28.3Z"/><path class="cls-1" d="M697.1092,90.3109c-5.5915,4.4491-12.8945,6.5031-21.3384,6.5031-11.411,0-21.5664-5.9326-27.9563-11.8668l9.1284-13.465c5.7055,5.9342,14.492,9.9275,20.5393,9.9275,5.9341,0,10.4979-2.8524,10.4979-8.1014,0-5.3636-5.8194-7.4176-9.2423-8.6733-3.4236-1.2541-9.3569-3.3081-11.9814-4.4491-1.94-.913-5.9342-2.3966-9.357-5.7062-3.4236-3.195-6.162-7.7588-6.162-15.1764a22.1741,22.1741,0,0,1,8.216-17.23c4.45-3.7654,11.6389-6.2752,20.768-6.2752s19.6262,4.3359,24.99,9.6981L697.3371,38.39c-4.5638-4.5638-11.6389-7.9866-17.5723-7.9866s-10.27,2.2819-10.27,7.0736,4.4506,6.6193,7.9874,7.9881c3.4236,1.3688,9.243,3.4228,11.7536,4.4506,2.1679.7984,7.4169,2.8524,10.9544,6.39a20.5988,20.5988,0,0,1,6.162,15.1764A23.8478,23.8478,0,0,1,697.1092,90.3109Z"/><path class="cls-1" d="M743.78,95.4452H725.2948V16.7107H743.78Z"/><path class="cls-1" d="M838.49,95.4452H819.55L784.9743,42.0424s.3411,9.47.3411,17.8009V95.4452H767.2873V16.7107h19.741L820.804,69.6561s-.3426-8.9-.3426-17.23V16.7107H838.49Z"/><path class="cls-1" d="M899.7693,96.814c-23.3924,0-41.7638-15.1764-41.7638-40.6229S876.3769,15.455,899.7693,15.455s41.7638,15.29,41.7638,40.7361S923.1618,96.814,899.7693,96.814Zm0-65.6121c-13.1224,0-23.05,9.4717-23.05,24.5334s9.9275,24.6481,23.05,24.6481,23.05-9.5863,23.05-24.6481C922.8192,40.7868,912.8917,31.2019,899.7693,31.2019Z"/></svg>